<svg xmlns="http://www.w3.org/2000/svg" width="74.935" height="66.011" viewBox="0 0 74.935 66.011">
  <path id="Icon_awesome-shopping-basket" data-name="Icon awesome-shopping-basket" d="M74.935,29.362v2.358a3.349,3.349,0,0,1-3.122,3.536H70.772l-3.4,26.933c-.439,3.484-3.074,6.072-6.182,6.072H13.742c-3.108,0-5.742-2.588-6.182-6.072l-3.4-26.933H3.122A3.349,3.349,0,0,1,0,31.719V29.362a3.349,3.349,0,0,1,3.122-3.536h8.761L25.774,4.192a3.857,3.857,0,0,1,5.815-1.04,5.132,5.132,0,0,1,.918,6.586L22.178,25.825H52.756L42.426,9.738a5.132,5.132,0,0,1,.918-6.586,3.857,3.857,0,0,1,5.815,1.04L63.052,25.825h8.761A3.349,3.349,0,0,1,74.935,29.362ZM40.59,55.294v-16.5a3.349,3.349,0,0,0-3.122-3.536,3.349,3.349,0,0,0-3.122,3.536v16.5a3.349,3.349,0,0,0,3.122,3.536A3.349,3.349,0,0,0,40.59,55.294Zm14.571,0v-16.5a3.147,3.147,0,1,0-6.245,0v16.5a3.147,3.147,0,1,0,6.245,0Zm-29.141,0v-16.5A3.349,3.349,0,0,0,22.9,35.256a3.349,3.349,0,0,0-3.122,3.536v16.5A3.349,3.349,0,0,0,22.9,58.831,3.349,3.349,0,0,0,26.019,55.294Z" transform="translate(0 -2.25)"/>
</svg>
