<svg xmlns="http://www.w3.org/2000/svg" width="50" height="50" viewBox="0 0 55 50">
  <path id="Icon_awesome-car-alt" data-name="Icon awesome-car-alt" d="M50.263,23.814l-1.288-3.659-2.284-6.488C44.731,8.1,40.055,4.5,34.776,4.5H20.224c-5.278,0-9.955,3.6-11.916,9.167L6.025,20.155,4.737,23.814A8.344,8.344,0,0,0,0,31.583v6.25a8.934,8.934,0,0,0,1.833,5.46v7.04A3.941,3.941,0,0,0,5.5,54.5H9.167a3.941,3.941,0,0,0,3.667-4.167V46.167H42.167v4.167A3.941,3.941,0,0,0,45.833,54.5H49.5a3.941,3.941,0,0,0,3.667-4.167v-7.04A8.928,8.928,0,0,0,55,37.833v-6.25A8.344,8.344,0,0,0,50.263,23.814ZM15.117,16.762a5.554,5.554,0,0,1,5.107-3.928H34.776a5.554,5.554,0,0,1,5.107,3.928l2.284,6.488H12.833l2.284-6.488ZM9.167,37.807c-2.2,0-3.667-1.661-3.667-4.154S6.967,29.5,9.167,29.5s5.5,3.738,5.5,6.23S11.367,37.807,9.167,37.807Zm36.667,0c-2.2,0-5.5.415-5.5-2.077s5.5-6.23,5.5-6.23S49.5,31.161,49.5,33.654s-1.467,4.154-3.667,4.154Z" transform="translate(0 -4.5)" fill="#fff"/>
</svg>
