<svg xmlns="http://www.w3.org/2000/svg" width="50" height="50" viewBox="0 0 56.624 59.905">
  <path id="Icon_awesome-gift" data-name="Icon awesome-gift" d="M3.539,57.876c0,2.367,1.581,4.279,3.539,4.279h17.7V40.76H3.539Zm28.312,4.279h17.7c1.958,0,3.539-1.912,3.539-4.279V40.76H31.851ZM53.085,19.366H48.429a13.637,13.637,0,0,0,1.117-5.349c0-6.485-4.368-11.767-9.732-11.767-4.6,0-7.576,2.848-11.391,9.133C24.607,5.1,21.632,2.25,17.032,2.25,11.668,2.25,7.3,7.532,7.3,14.017a13.444,13.444,0,0,0,1.117,5.349H3.539C1.581,19.366,0,21.278,0,23.645v10.7a1.987,1.987,0,0,0,1.77,2.139H54.855a1.987,1.987,0,0,0,1.77-2.139v-10.7C56.624,21.278,55.043,19.366,53.085,19.366Zm-36.065,0c-2.444,0-4.424-2.394-4.424-5.349s1.98-5.349,4.424-5.349c2.2,0,3.827.441,9.522,10.7Zm22.793,0H30.292c5.685-10.229,7.266-10.7,9.522-10.7,2.444,0,4.424,2.394,4.424,5.349S42.258,19.366,39.814,19.366Z" transform="translate(0 -2.25)" fill="#fff"/>
</svg>
