<svg xmlns="http://www.w3.org/2000/svg" width="34.875" height="34.875" viewBox="0 0 34.875 34.875">
  <path id="Icon_awesome-sad-tear" data-name="Icon awesome-sad-tear" d="M17.438.563A17.438,17.438,0,1,0,34.875,18,17.434,17.434,0,0,0,17.438.563Zm5.625,11.813a2.25,2.25,0,1,1-2.25,2.25A2.248,2.248,0,0,1,23.063,12.375ZM10.688,29.25a3.339,3.339,0,0,1-3.375-3.3c0-1.406,2-4.247,2.925-5.47a.56.56,0,0,1,.9,0c.921,1.223,2.925,4.064,2.925,5.47A3.339,3.339,0,0,1,10.688,29.25Zm1.125-12.375a2.25,2.25,0,1,1,2.25-2.25A2.248,2.248,0,0,1,11.813,16.875ZM23.78,27.717a8.25,8.25,0,0,0-6.342-2.967,1.125,1.125,0,0,1,0-2.25A10.461,10.461,0,0,1,25.5,26.283,1.121,1.121,0,0,1,23.78,27.717Z" transform="translate(0 -0.563)"/>
</svg>
